<svg style="object-fit:cover" id="my-svg" version="1" baseProfile="full" width="100%" height="100%" viewBox="0 0 1858 977" xmlns="http://www.w3.org/2000/svg"><rect width="1858" height="977" fill="#000"/><defs><linearGradient id="linear-gradient" x1="0" x2="1" y1="0" y2="1"><stop offset="0%" stop-color="#c81d1190"/><stop offset="100%" stop-color="#1c39bb90"/></linearGradient></defs><path transform="scale(1, -1)" style="transform-origin:center" d="M 0,977 V 0,683 C 179.0476190476191,682.6785714285714 358.0952380952382,682.3571428571429 490,637 C 621.9047619047618,591.6428571428571 706.6666666666665,501.2499999999999 872,528 C 1037.3333333333335,554.7500000000001 1283.2380952380954,698.6428571428572 1461,744 C 1638.7619047619046,789.3571428571428 1748.3809523809523,736.1785714285713 1858,683 C 1858,683 1858,977 1858,977 Z" stroke="none" stroke-width="0" fill="url(#linear-gradient)" class="transition-all duration-300 ease-in-out delay-150"/><defs><linearGradient id="linear-gradient" x1="0" x2="1" y1="0" y2="1"><stop offset="0%" stop-color="#c81d11ff"/><stop offset="100%" stop-color="#1c39bbff"/></linearGradient></defs><path transform="scale(1, -1)" style="transform-origin:center" d="M 0,977 V 0,1025 C 178.51190476190476,921.2142857142858 357.0238095238095,817.4285714285714 494,794 C 630.9761904761905,770.5714285714286 726.4166666666665,827.5000000000001 886,823 C 1045.5833333333335,818.4999999999999 1269.3095238095239,752.5714285714286 1442,776 C 1614.6904761904761,799.4285714285714 1736.345238095238,912.2142857142858 1858,1025 C 1858,1025 1858,977 1858,977 Z" stroke="none" stroke-width="0" fill="url(#linear-gradient)" class="transition-all duration-300 ease-in-out delay-150"/></svg>