<svg style="object-fit:cover" id="my-svg" version="1" baseProfile="full" width="100%" height="100%" viewBox="0 0 1858 977" xmlns="http://www.w3.org/2000/svg"><rect width="1858" height="977" fill="#000"/><defs><linearGradient id="linear-gradient" x1="0" x2="1" y1="0" y2="1"><stop offset="0%" stop-color="#c81d1190"/><stop offset="100%" stop-color="#1c39bb90"/></linearGradient></defs><path transform="scale(1, -1)" style="transform-origin:center" d="M 0,977 V 0,683 C 198.3690476190476,759.4642857142858 396.7380952380952,835.9285714285714 528,781 C 659.2619047619048,726.0714285714286 723.4166666666667,539.75 879,477 C 1034.5833333333333,414.24999999999994 1281.595238095238,475.07142857142856 1460,530 C 1638.404761904762,584.9285714285714 1748.202380952381,633.9642857142858 1858,683 C 1858,683 1858,977 1858,977 Z" stroke="none" stroke-width="0" fill="url(#linear-gradient)" class="transition-all duration-300 ease-in-out delay-150"/><defs><linearGradient id="linear-gradient" x1="0" x2="1" y1="0" y2="1"><stop offset="0%" stop-color="#c81d11ff"/><stop offset="100%" stop-color="#1c39bbff"/></linearGradient></defs><path transform="scale(1, -1)" style="transform-origin:center" d="M 0,977 V 0,1025 C 174.76190476190476,924.0714285714286 349.5238095238095,823.1428571428571 497,861 C 644.4761904761905,898.8571428571429 764.6666666666666,1075.5000000000002 891,1089 C 1017.3333333333334,1102.4999999999998 1149.8095238095239,952.8571428571428 1312,915 C 1474.1904761904761,877.1428571428572 1666.095238095238,951.0714285714287 1858,1025 C 1858,1025 1858,977 1858,977 Z" stroke="none" stroke-width="0" fill="url(#linear-gradient)" class="transition-all duration-300 ease-in-out delay-150"/></svg>